<svg width="34" height="34" viewBox="0 0 34 34" fill="none" xmlns="http://www.w3.org/2000/svg">
<path d="M30.6312 13.0399H24.0766L18.083 4.06313C17.823 3.67998 17.3851 3.4884 16.9472 3.4884C16.5093 3.4884 16.0714 3.67998 15.8114 4.07682L9.81783 13.0399H3.26318C2.51056 13.0399 1.89478 13.6556 1.89478 14.4083C1.89478 14.5314 1.90846 14.6546 1.94951 14.7777L5.42525 27.4628C5.73999 28.6123 6.79366 29.4607 8.05259 29.4607H25.8418C27.1008 29.4607 28.1544 28.6123 28.4828 27.4628L31.9586 14.7777L31.9996 14.4083C31.9996 13.6556 31.3839 13.0399 30.6312 13.0399ZM16.9472 7.29256L20.7787 13.0399H13.1157L16.9472 7.29256ZM25.8418 26.7239L8.06627 26.7376L5.05579 15.7767H28.8523L25.8418 26.7239ZM16.9472 18.5135C15.442 18.5135 14.2104 19.745 14.2104 21.2503C14.2104 22.7555 15.442 23.9871 16.9472 23.9871C18.4524 23.9871 19.684 22.7555 19.684 21.2503C19.684 19.745 18.4524 18.5135 16.9472 18.5135Z" fill="black"/>
</svg>
