<svg width="20" height="20" viewBox="0 0 20 20" fill="none" xmlns="http://www.w3.org/2000/svg">
<path d="M2.07323 6.31338H2.34692C3.40059 6.31338 4.26268 7.17548 4.26268 8.22915V17.808C4.26268 18.8616 3.40059 19.7237 2.34692 19.7237H2.07323C1.01956 19.7237 0.157471 18.8616 0.157471 17.808V8.22915C0.157471 7.17548 1.01956 6.31338 2.07323 6.31338V6.31338ZM9.73629 0.56609C10.79 0.56609 11.6521 1.42818 11.6521 2.48185V17.808C11.6521 18.8616 10.79 19.7237 9.73629 19.7237C8.68262 19.7237 7.82053 18.8616 7.82053 17.808V2.48185C7.82053 1.42818 8.68262 0.56609 9.73629 0.56609ZM17.3993 11.5133C18.453 11.5133 19.3151 12.3754 19.3151 13.4291V17.808C19.3151 18.8616 18.453 19.7237 17.3993 19.7237C16.3457 19.7237 15.4836 18.8616 15.4836 17.808V13.4291C15.4836 12.3754 16.3457 11.5133 17.3993 11.5133V11.5133Z" fill="black"/>
</svg>
